<?xml version="1.0"?>
<svg width="16" height="16" xmlns="http://www.w3.org/2000/svg" xmlns:svg="http://www.w3.org/2000/svg" xmlns:xlink="http://www.w3.org/1999/xlink" version="1.1" xml:space="preserve">
 <!-- Created with SVG-edit - https://github.com/SVG-Edit/svgedit-->
 <defs>
  <symbol height="64px" id="svg_7" version="1.1" viewBox="0 0 512.00 512.00" width="64px" xml:space="preserve" xmlns="http://www.w3.org/2000/svg" xmlns:xlink="http://www.w3.org/1999/xlink">
   <g id="svg_6" stroke-width="0"/>
   <g id="svg_5" stroke-linecap="round" stroke-linejoin="round"/>
   <g id="svg_4">
    <style type="text/css">.st0{fill:#ffffff;}</style>
    <g>
     <path class="st0" d="m459.22,255.99c0,-11.31 -0.92,-22.64 -2.8,-33.81c16.64,-7.14 32.97,-15.37 48.86,-24.66c-3.25,-13.92 -7.69,-27.56 -13.22,-40.71c-18.33,1.81 -36.37,4.73 -54.03,8.73c-5.05,-10.14 -10.94,-19.84 -17.61,-28.98c-6.65,-9.18 -14.08,-17.77 -22.17,-25.69c9.25,-15.58 17.61,-31.83 25,-48.69c-10.78,-9.31 -22.34,-17.73 -34.53,-25.14c-13.77,12.23 -26.67,25.19 -38.64,38.78c-10.02,-5.25 -20.5,-9.66 -31.27,-13.14c-10.76,-3.5 -21.83,-6.08 -33.03,-7.74c-1.69,-18.03 -4.52,-36.09 -8.47,-54.07c-14.2,-1.16 -28.42,-1.16 -42.62,0c-3.96,17.98 -6.78,36.04 -8.47,54.07c-11.21,1.66 -22.27,4.24 -33.03,7.74c-10.77,3.48 -21.25,7.89 -31.27,13.14c-11.97,-13.59 -24.87,-26.55 -38.62,-38.78c-12.21,7.4 -23.77,15.83 -34.55,25.14c7.4,16.86 15.75,33.11 25,48.69c-8.08,7.92 -15.52,16.51 -22.17,25.69c-6.66,9.14 -12.57,18.84 -17.61,28.98c-17.66,-4 -35.71,-6.92 -54.03,-8.73c-5.53,13.15 -9.97,26.79 -13.22,40.71c15.9,9.29 32.22,17.52 48.86,24.66c-1.88,11.17 -2.8,22.5 -2.8,33.81c0,11.33 0.92,22.64 2.8,33.82c-16.64,7.15 -32.96,15.37 -48.86,24.67c3.25,13.9 7.69,27.55 13.22,40.72c18.32,-1.83 36.37,-4.75 54.03,-8.75c5.04,10.14 10.95,19.84 17.61,29s14.09,17.76 22.17,25.67c-9.25,15.58 -17.6,31.84 -25,48.69c10.78,9.31 22.34,17.73 34.55,25.14c13.75,-12.22 26.65,-25.17 38.62,-38.78c10.02,5.25 20.5,9.65 31.27,13.15s21.82,6.08 33.03,7.74c1.69,18.03 4.51,36.09 8.47,54.06c14.2,1.17 28.42,1.17 42.62,0c3.95,-17.97 6.78,-36.03 8.47,-54.06c11.2,-1.66 22.27,-4.24 33.03,-7.74s21.25,-7.9 31.27,-13.15c11.97,13.61 24.87,26.56 38.64,38.78c12.19,-7.41 23.75,-15.83 34.53,-25.14c-7.39,-16.85 -15.75,-33.11 -25,-48.69c8.09,-7.91 15.52,-16.52 22.17,-25.67c6.67,-9.16 12.56,-18.86 17.61,-29c17.66,4 35.7,6.92 54.03,8.75c5.53,-13.17 9.97,-26.82 13.22,-40.72c-15.89,-9.3 -32.22,-17.52 -48.86,-24.67c1.88,-11.18 2.8,-22.49 2.8,-33.82zm-113.09,124.14c-13,9.46 -27.47,16.85 -42.71,21.8c-15.23,4.94 -31.23,7.45 -47.42,7.45c-16.17,0 -32.19,-2.51 -47.42,-7.45c-15.24,-4.95 -29.7,-12.34 -42.7,-21.8c-13.02,-9.46 -24.55,-21 -34,-34.01c-9.47,-13 -16.86,-27.45 -21.8,-42.7c-4.95,-15.24 -7.47,-31.24 -7.45,-47.43c-0.02,-16.17 2.5,-32.17 7.45,-47.42c4.94,-15.23 12.33,-29.7 21.8,-42.7c9.45,-13 20.98,-24.53 34,-34c13,-9.47 27.45,-16.86 42.7,-21.8c15.23,-4.95 31.25,-7.45 47.42,-7.45c16.19,0 32.19,2.5 47.42,7.45c15.25,4.94 29.71,12.33 42.71,21.8c13.01,9.47 24.54,21 34,34c9.46,13 16.85,27.47 21.79,42.7c4.96,15.25 7.47,31.25 7.46,47.42c0.01,16.19 -2.5,32.19 -7.46,47.43c-4.94,15.25 -12.33,29.7 -21.79,42.7c-9.46,13.01 -20.99,24.55 -34,34.01z"/>
     <path class="st0" d="m308.97,168.85c-5.98,-4 -9.89,-5.14 -9.89,-5.14c-1.77,-0.92 -3.92,-0.76 -5.53,0.41c-1.63,1.19 -2.44,3.16 -2.11,5.16l1.47,8.87l8.47,50.33c1.6,9.7 -8.5,15.53 -16.13,20.72l-24.56,16.26c-2.56,1.69 -5.72,2.19 -8.67,1.36l-27.24,-7.59c-9.17,-2.19 -20.36,-4.7 -21.97,-14.41l-8.67,-51.51l-1.39,-8.44c-0.33,-1.97 -1.73,-3.6 -3.62,-4.19c-1.91,-0.59 -3.97,-0.06 -5.36,1.36c0,0 -3.89,2.77 -8.54,8.75c-11.67,15.08 -19.12,33.67 -20.48,54.14c-1.89,28.84 8.72,55.64 27.22,75.03c16.44,17.22 32.31,22.66 35.12,54.06c0.18,0.07 0.33,0.13 0.49,0.18c12.36,4.01 25.31,6.04 38.42,6.04s26.06,-2.03 38.42,-6.04c2.5,-0.82 5,-1.72 7.46,-2.69c2.59,-28.45 14.17,-40.85 31.03,-59.99c12.43,-14.14 18.68,-33.34 20.01,-53.53c2.42,-36.7 -15.42,-70.06 -43.95,-89.14z"/>
    </g>
   </g>
  </symbol>
 </defs>
 <g class="layer">
  <title>Layer 1</title>
  <use id="svg_12" transform="matrix(0.243646, 0, 0, 0.243418, 0.0950084, 0.22961)" x="0.51" xlink:href="#svg_7" y="0"/>
 </g>
</svg>